<?xml version="1.0" encoding="UTF-8"?>
<svg version="1.1" xmlns="http://www.w3.org/2000/svg" width="1536" height="1024">
<path d="M0 0 C506.88 0 1013.76 0 1536 0 C1536 337.92 1536 675.84 1536 1024 C1029.12 1024 522.24 1024 0 1024 C0 686.08 0 348.16 0 0 Z " fill="#FAFAFA" transform="translate(0,0)"/>
<path d="M0 0 C0.33 0 0.66 0 1 0 C3.05713074 42.43784523 -18.21953955 78.95254661 -45 110 C-46.01126953 111.19882812 -46.01126953 111.19882812 -47.04296875 112.421875 C-47.62691406 113.10765625 -48.21085937 113.7934375 -48.8125 114.5 C-49.29332031 115.0671875 -49.77414062 115.634375 -50.26953125 116.21875 C-52.67674375 118.69660305 -55.33629744 120.79977494 -58 123 C-57.04802734 122.9285376 -56.09605469 122.8570752 -55.11523438 122.78344727 C-44.89574378 122.05735901 -34.74198734 121.87709211 -24.5 121.9375 C-22.98307443 121.94253584 -21.4661472 121.94709499 -19.94921875 121.95117188 C-16.2994436 121.96198764 -12.64973321 121.97913154 -9 122 C-13.15083038 128.68367141 -17.42438679 135.16003606 -22.25 141.375 C-23.0857959 142.45890015 -23.0857959 142.45890015 -23.93847656 143.56469727 C-34.17166505 156.74596323 -45.15123293 169.24896218 -57 181 C-56.48203857 181.34667725 -55.96407715 181.69335449 -55.43041992 182.05053711 C-42.73902701 190.57015044 -30.87838574 199.33709745 -19.58203125 209.6640625 C-18.15289709 210.95698569 -16.71715892 212.24309686 -15.25561523 213.49926758 C-9.73804513 218.24384145 -4.56955454 223.28087058 0.5625 228.4375 C1.37396484 229.24509766 2.18542969 230.05269531 3.02148438 230.88476562 C7.88977792 235.76091759 12.52358958 240.76376615 17 246 C18.01040173 247.15610028 19.0220896 248.31107797 20.03515625 249.46484375 C33.11566679 264.44185688 45.69372125 279.62656933 57 296 C57.36691956 296.53105347 57.73383911 297.06210693 58.11187744 297.60925293 C101 359.78338331 101 359.78338331 101 373 C93.05633305 370.54063386 85.5355679 367.29795629 77.9375 363.9375 C76.53667965 363.32123732 75.13579906 362.70511156 73.73486328 362.08911133 C58.32474183 355.30068937 42.98040487 348.36466378 27.63096619 341.44049072 C-5.306363 326.58450571 -38.24061861 311.76620848 -71.77685547 298.29980469 C-74.93089335 297.02786879 -78.07740711 295.73880677 -81.22265625 294.4453125 C-96.94684924 288.01217777 -112.88341194 282.36733807 -129 277 C-130.27431086 276.57276874 -131.54856189 276.14535901 -132.82275391 275.71777344 C-157.45332402 267.4705234 -182.19864361 260.13246336 -207.8125 255.625 C-208.50276276 255.50330444 -209.19302551 255.38160889 -209.90420532 255.25622559 C-223.84332031 252.82963633 -237.94534138 250.59431007 -252.125 250.75 C-253.08817139 250.75821777 -254.05134277 250.76643555 -255.04370117 250.77490234 C-286.18404597 251.24515518 -316.77206808 256.92661025 -344.09375 272.3984375 C-347 274 -347 274 -350 275 C-348.73276657 279.54091981 -347.00096864 282.39883763 -344 286 C-344 286.66 -344 287.32 -344 288 C-354.81682354 285.53629833 -365.1904976 279.96502834 -372 271 C-380.77515767 256.98487087 -383.02878755 243.66290217 -380.41796875 227.3671875 C-375.11885514 207.67093874 -360.05437251 194.51214863 -343.015625 184.640625 C-330.61684432 177.7295624 -317.45325278 172.79001587 -304.19033813 167.82154846 C-301.40209793 166.77441411 -298.61751333 165.71773269 -295.83306885 164.66055298 C-293.79594601 163.89232685 -291.75354102 163.1396291 -289.71044922 162.38745117 C-276.74804823 157.53004774 -269.02184491 151.26308703 -261.578125 139.76391602 C-239.2001997 105.26029778 -206.04364567 96.53482618 -168 88 C-134.7672161 80.53109858 -100.93146692 70.89105372 -70.16894531 56.03222656 C-68.02158277 55.0102715 -65.85719769 54.04174883 -63.6796875 53.0859375 C-48.33391378 46.27730438 -34.0577576 37.74979915 -22 26 C-20.81930739 25.03329219 -19.63222669 24.07430879 -18.4375 23.125 C-11.41945109 17.14972723 -5.98032953 9.33268934 -1.09375 1.58203125 C-0.7328125 1.05996094 -0.371875 0.53789062 0 0 Z " fill="#F9F9FA" transform="translate(739,410)"/>
<path d="M0 0 C1 2 1 2 0.59790039 3.77734375 C0.35031982 4.49019531 0.10273926 5.20304688 -0.15234375 5.9375 C-0.42981445 6.74058594 -0.70728516 7.54367188 -0.99316406 8.37109375 C-1.30479492 9.23863281 -1.61642578 10.10617188 -1.9375 11 C-2.2581543 11.89847656 -2.57880859 12.79695312 -2.90917969 13.72265625 C-18.58477662 56.87986601 -46.05370278 97.37958876 -84 124 C-85.00764404 124.70962891 -85.00764404 124.70962891 -86.03564453 125.43359375 C-112.84333157 144.13521913 -144.36874641 162.15745174 -177 168 C-161.70834499 168.4131162 -147.07167296 167.65490174 -132 165 C-131.25008789 164.87141602 -130.50017578 164.74283203 -129.72753906 164.61035156 C-112.70939004 161.58267725 -95.31040168 156.13508151 -79.70922852 148.71679688 C-78 148 -78 148 -76 148 C-77.36616563 152.74562798 -79.42364599 156.655208 -82.125 160.75 C-82.52605957 161.36343262 -82.92711914 161.97686523 -83.34033203 162.60888672 C-89.56117627 171.99536767 -96.8924054 180.35305653 -104.61181641 188.52392578 C-105.91428714 189.90886037 -107.1980846 191.31128944 -108.48046875 192.71484375 C-130.27876727 215.72979149 -160.39039262 230.25411233 -189.73510742 241.15795898 C-191.31953102 241.74701547 -192.90015428 242.34634964 -194.4777832 242.95336914 C-202.00516523 245.79471222 -209.64879194 247.93540544 -217.4375 249.9375 C-218.10419708 250.10952942 -218.77089417 250.28155884 -219.45779419 250.45880127 C-243.92868199 256.73699787 -268.7720841 260.7251851 -294 262 C-263.41967108 274.42859737 -233.26764857 278.30082155 -201.4765625 267.76953125 C-199 267 -199 267 -197 267 C-206.54674106 293.69088861 -234.10243156 316.92258697 -258.84375 329.09765625 C-290.05191668 343.68979161 -320.43405047 348.21064861 -354.5625 348.1875 C-355.6530368 348.1882251 -356.74357361 348.1889502 -357.86715698 348.18969727 C-371.58351073 348.18869042 -385.1507824 347.89292313 -398.82202148 346.72045898 C-446.86007044 342.63425813 -480.8419463 356.46899985 -520 383 C-521.99770644 384.33681526 -523.99857641 385.66875006 -526 387 C-526.66 386.67 -527.32 386.34 -528 386 C-514.17676719 358.29258155 -495.76998927 336.02355587 -466 325 C-454.43228826 321.13667137 -443.29412584 318.85060291 -431.078125 318.83203125 C-430.23267624 318.82797775 -429.38722748 318.82392426 -428.51615906 318.81974792 C-425.7607342 318.81028957 -423.00543895 318.81035826 -420.25 318.8125 C-418.82689011 318.81141235 -418.82689011 318.81141235 -417.37503052 318.81030273 C-404.19676887 318.81140763 -391.08881686 319.16875783 -377.9375 320 C-334.70371216 322.71788598 -298.33119195 318.54450216 -259 300 C-260.09054687 299.85304688 -261.18109375 299.70609375 -262.3046875 299.5546875 C-297.97722358 294.402654 -327.12391038 276.3776155 -353 252 C-354.05960938 251.00419922 -354.05960938 251.00419922 -355.140625 249.98828125 C-357.94629635 247.27409919 -360.34046724 244.57292242 -362.59985352 241.38574219 C-363.04949966 240.75255066 -363.49914581 240.11935913 -363.9624176 239.46697998 C-364.30481979 238.98287659 -364.64722198 238.49877319 -365 238 C-364.39152725 238.00444122 -363.7830545 238.00888245 -363.15614319 238.01345825 C-356.68053601 238.05855925 -350.20497504 238.08821547 -343.72924805 238.10986328 C-341.32948997 238.11976973 -338.92974343 238.13329858 -336.5300293 238.15087891 C-314.96266194 238.3046408 -293.53298297 237.55294869 -272.25 233.8125 C-271.00959961 233.59891846 -269.76919922 233.38533691 -268.49121094 233.1652832 C-230.22571453 226.34872818 -191.90380659 215.36677246 -158 196 C-159.03217651 196.02356567 -159.03217651 196.02356567 -160.08520508 196.04760742 C-199.56667941 196.82613387 -238.44322124 186.92268323 -270 162 C-270 161.34 -270 160.68 -270 160 C-268.76419189 159.84966309 -268.76419189 159.84966309 -267.50341797 159.69628906 C-217.02570245 153.50502984 -168.17481477 141.83944852 -122.82373047 117.95898438 C-120.97342241 116.98602453 -119.11444374 116.03135439 -117.25390625 115.078125 C-101.52923369 106.95010021 -87.44648249 97.52279069 -74 86 C-73.05350586 85.19816284 -73.05350586 85.19816284 -72.08789062 84.38012695 C-66.6304629 79.69583482 -61.55686218 74.67289574 -56.5 69.5625 C-55.67757812 68.73556641 -54.85515625 67.90863281 -54.0078125 67.05664062 C-52.00287887 65.04005041 -50.00033747 63.02114764 -48 61 C-48.66862061 61.44456543 -49.33724121 61.88913086 -50.02612305 62.34716797 C-66.04294297 72.91045287 -83.11094422 80.18744711 -101 87 C-101.76779785 87.30035156 -102.5355957 87.60070312 -103.32666016 87.91015625 C-123.94599447 95.97287588 -145.68248461 100.16161927 -167.4375 103.8125 C-168.73770584 104.03303543 -168.73770584 104.03303543 -170.06417847 104.25802612 C-183.00030323 106.43297215 -195.92500367 107.95691309 -209 109 C-210.0287323 109.08704193 -210.0287323 109.08704193 -211.07824707 109.17584229 C-225.528911 110.37060367 -240.04449524 110.19747692 -254.53332901 110.18867874 C-256.71146039 110.18748689 -258.88958698 110.18803678 -261.06771851 110.18869019 C-287.50237273 110.18699425 -313.86928367 109.38716425 -340.27929688 108.24365234 C-364.16197655 107.21607254 -388.03664246 106.88466379 -411.94022751 106.8192215 C-413.8890465 106.81266306 -415.83785074 106.80210396 -417.78665161 106.79144287 C-445.14804111 106.65723048 -472.05305306 108.17465749 -499.09179688 112.53271484 C-501.52248728 112.92327406 -503.95464739 113.2891391 -506.390625 113.64453125 C-525.57921856 116.75565259 -544.67259077 123.22778205 -562 132 C-562.62261719 132.31404785 -563.24523437 132.6280957 -563.88671875 132.95166016 C-572.84550494 137.56237874 -580.7144861 143.25194987 -588.43066406 149.69335938 C-589.83228431 150.86035869 -591.2546901 152.00228888 -592.6796875 153.140625 C-607.28698631 165.36782081 -618.93252427 183.99886347 -625 202 C-625.32355469 202.91007813 -625.64710938 203.82015625 -625.98046875 204.7578125 C-632.32515837 223.7675722 -633.55629554 242.39317605 -633.25 262.3125 C-633.22987025 264.62563528 -633.21163113 266.93878782 -633.1953125 269.25195312 C-633.1519092 274.83502163 -633.08552846 280.41742582 -633 286 C-647.02108653 272.23462152 -651.97739576 253.2324097 -652.24145508 234.03344727 C-652.35360944 195.85930649 -638.00154477 163.62356931 -612 136 C-611.17822266 135.09894531 -611.17822266 135.09894531 -610.33984375 134.1796875 C-577.99352731 100.00544654 -524.67941452 86.79558565 -479.61914062 82.62231445 C-477.63368776 82.43830517 -475.64886979 82.24748748 -473.6640625 82.05664062 C-469.77709007 81.68838084 -465.89111906 81.32122611 -462 81 C-460.97035126 80.91446365 -459.94070251 80.82892731 -458.87985229 80.74079895 C-450.69699611 80.10442413 -442.57307532 79.84038316 -434.3671875 79.83203125 C-433.08356827 79.82793243 -431.79994904 79.82383362 -430.47743225 79.8196106 C-426.99952308 79.81029946 -423.52166263 79.80922539 -420.04374313 79.81132126 C-417.85843503 79.812509 -415.67313173 79.81196444 -413.48782349 79.81130981 C-390.29278326 79.81279225 -367.12126126 80.22933088 -343.9375 80.9375 C-343.21740501 80.95931461 -342.49731003 80.98112923 -341.75539398 81.00360489 C-336.9291365 81.15043459 -332.10319428 81.30518235 -327.27734375 81.46484375 C-326.09543961 81.50344513 -324.91353546 81.54204651 -323.69581604 81.58181763 C-318.01255587 81.77990396 -312.33895144 82.0331482 -306.66337395 82.38405323 C-295.76882186 83.04817257 -284.90103576 83.18117084 -273.98828125 83.203125 C-272.53203874 83.20736607 -272.53203874 83.20736607 -271.04637718 83.21169281 C-265.90127685 83.22655616 -260.75620359 83.23586467 -255.61108398 83.24023438 C-251.43521302 83.24460176 -247.25955067 83.25844481 -243.08374023 83.28125 C-218.83722186 83.41097658 -195.08382755 82.99990075 -171 80 C-168.37446417 79.69491796 -165.74872736 79.39156101 -163.12280273 79.08984375 C-101.23538686 71.97816863 -40.36480504 49.47238741 0 0 Z " fill="#034194" transform="translate(1266,182)"/>
<path d="M0 0 C0.33 0 0.66 0 1 0 C3.05713074 42.43784523 -18.21953955 78.95254661 -45 110 C-46.01126953 111.19882812 -46.01126953 111.19882812 -47.04296875 112.421875 C-47.62691406 113.10765625 -48.21085937 113.7934375 -48.8125 114.5 C-49.29332031 115.0671875 -49.77414062 115.634375 -50.26953125 116.21875 C-52.67674375 118.69660305 -55.33629744 120.79977494 -58 123 C-57.04802734 122.9285376 -56.09605469 122.8570752 -55.11523438 122.78344727 C-44.89574378 122.05735901 -34.74198734 121.87709211 -24.5 121.9375 C-22.98307443 121.94253584 -21.4661472 121.94709499 -19.94921875 121.95117188 C-16.2994436 121.96198764 -12.64973321 121.97913154 -9 122 C-13.15083038 128.68367141 -17.42438679 135.16003606 -22.25 141.375 C-23.0857959 142.45890015 -23.0857959 142.45890015 -23.93847656 143.56469727 C-34.17166505 156.74596323 -45.15123293 169.24896218 -57 181 C-56.48203857 181.34667725 -55.96407715 181.69335449 -55.43041992 182.05053711 C-42.73902701 190.57015044 -30.87838574 199.33709745 -19.58203125 209.6640625 C-18.15289709 210.95698569 -16.71715892 212.24309686 -15.25561523 213.49926758 C-9.73804513 218.24384145 -4.56955454 223.28087058 0.5625 228.4375 C1.37396484 229.24509766 2.18542969 230.05269531 3.02148438 230.88476562 C7.88977792 235.76091759 12.52358958 240.76376615 17 246 C18.01040173 247.15610028 19.0220896 248.31107797 20.03515625 249.46484375 C33.11566679 264.44185688 45.69372125 279.62656933 57 296 C57.36691956 296.53105347 57.73383911 297.06210693 58.11187744 297.60925293 C101 359.78338331 101 359.78338331 101 373 C93.05633305 370.54063386 85.5355679 367.29795629 77.9375 363.9375 C76.53667965 363.32123732 75.13579906 362.70511156 73.73486328 362.08911133 C58.32474183 355.30068937 42.98040487 348.36466378 27.63096619 341.44049072 C-5.306363 326.58450571 -38.24061861 311.76620848 -71.77685547 298.29980469 C-74.93089335 297.02786879 -78.07740711 295.73880677 -81.22265625 294.4453125 C-96.94684924 288.01217777 -112.88341194 282.36733807 -129 277 C-130.27431086 276.57276874 -131.54856189 276.14535901 -132.82275391 275.71777344 C-157.45332402 267.4705234 -182.19864361 260.13246336 -207.8125 255.625 C-208.50276276 255.50330444 -209.19302551 255.38160889 -209.90420532 255.25622559 C-223.84332031 252.82963633 -237.94534138 250.59431007 -252.125 250.75 C-253.08817139 250.75821777 -254.05134277 250.76643555 -255.04370117 250.77490234 C-287.62258456 251.26687866 -318.56415042 257.78484238 -347 274 C-347.66 274.33 -348.32 274.66 -349 275 C-346.54712969 262.51009715 -338.35895723 251.26210903 -328 244 C-304.71304185 229.39348503 -278.6487617 225.77476659 -251.625 225.8125 C-250.826315 225.81310425 -250.02763 225.8137085 -249.20474243 225.81433105 C-236.70075878 225.83998057 -224.39532312 226.23068389 -212 228 C-211.19175781 228.10763672 -210.38351562 228.21527344 -209.55078125 228.32617188 C-178.45138366 232.59329852 -147.58000378 241.69253683 -118 252 C-116.80922852 252.4129834 -115.61845703 252.8259668 -114.39160156 253.25146484 C-66.16857714 270.12102652 -18.54004342 290.73290873 26.96582031 313.96679688 C31.29889214 316.16765621 35.65176186 318.32930834 40 320.5 C41.72922908 321.3644585 43.45840137 322.2290306 45.1875 323.09375 C46.29158203 323.64579102 46.29158203 323.64579102 47.41796875 324.20898438 C47.94003906 324.47001953 48.46210937 324.73105469 49 325 C44.15026906 316.67609817 38.39983068 309.40454991 32.27734375 302 C29.34054538 298.44272723 26.5282621 294.80658285 23.75 291.125 C20.11169112 286.3522911 16.28167753 281.87474963 12.21484375 277.46484375 C9.8753428 274.86127215 7.68687889 272.1701511 5.5 269.4375 C1.94806246 265.0439884 -1.83062523 261.06014626 -5.875 257.12109375 C-7.89170028 255.10810064 -9.7677905 253.03483516 -11.625 250.875 C-16.68377488 245.00216939 -22.17232274 239.79341256 -28.04296875 234.7421875 C-29.8853668 233.10204871 -31.59988636 231.39892439 -33.3125 229.625 C-37.86919778 225.00672522 -42.93111926 221.03716166 -48 217 C-49.14464915 216.07566682 -50.28917638 215.15118263 -51.43359375 214.2265625 C-58.3827949 208.65058538 -65.37667377 203.63580649 -73 199 C-73.33 202.63 -73.66 206.26 -74 210 C-77.61150569 206.54136228 -80.611128 202.99756131 -83.5625 198.9375 C-86.67257922 194.65967443 -86.67257922 194.65967443 -90.33984375 190.87890625 C-90.88769531 190.25886719 -91.43554688 189.63882813 -92 189 C-91.62612394 185.72827118 -90.41712956 184.0337748 -88.15625 181.71484375 C-87.57383545 181.10721191 -86.9914209 180.49958008 -86.39135742 179.87353516 C-85.76720947 179.23464355 -85.14306152 178.59575195 -84.5 177.9375 C-80.21076163 173.45766501 -76.05186506 168.97776394 -72.1875 164.125 C-68.74136849 159.80772744 -65.04114473 155.93315408 -61.0859375 152.08203125 C-58.19908919 149.20058902 -55.60364024 146.13772029 -53 143 C-60.28012952 142.81161768 -67.28651759 143.3560648 -74.5 144.3125 C-76.06016846 144.5122644 -76.06016846 144.5122644 -77.65185547 144.71606445 C-84.8957816 145.66418452 -92.10517639 146.76580335 -99.29101562 148.08520508 C-103.24768303 148.79494895 -106.98088694 149.13146632 -111 149 C-104.67441637 141.23114595 -97.42289993 134.36028367 -90.30688477 127.32739258 C-81.62081892 118.73676584 -81.62081892 118.73676584 -73.44311523 109.66577148 C-71.25408415 107.13899782 -68.89202946 104.83574642 -66.5 102.5 C-62.11651149 98.16179393 -57.93305147 93.75176831 -54 89 C-53.38850098 88.26716797 -53.38850098 88.26716797 -52.76464844 87.51953125 C-43.85876514 76.79936866 -35.87336516 65.49223349 -28 54 C-30.54912017 56.03190738 -33.08690795 58.07224878 -35.59375 60.15625 C-59.43883206 79.38615489 -88.5043541 90.62847457 -117 101 C-118.12833252 101.41701172 -119.25666504 101.83402344 -120.41918945 102.26367188 C-129.28816126 105.50134067 -138.23954864 108.28066234 -147.3125 110.875 C-148.05835358 111.08999146 -148.80420715 111.30498291 -149.57266235 111.52648926 C-160.85801863 114.76413918 -172.18013629 117.43530136 -183.6875 119.75 C-204.49460217 123.95330281 -224.77050452 129.72285863 -237.3125 148.3359375 C-239.24269663 151.30106708 -241.09955977 154.30973046 -242.95214844 157.32373047 C-245.4605837 161.33652556 -248.21183729 165.17866025 -251 169 C-251.40476562 169.57234375 -251.80953125 170.1446875 -252.2265625 170.734375 C-257.52535045 177.72733324 -264.62609317 181.06548537 -272.73828125 183.8515625 C-273.48086685 184.11006989 -274.22345245 184.36857727 -274.98854065 184.63491821 C-282.34261367 187.16804528 -289.77294934 189.43649314 -297.21435547 191.69641113 C-331.5197025 201.37488847 -331.5197025 201.37488847 -356.875 224.5625 C-362.48951604 235.26149036 -362.60056514 246.96581265 -359.125 258.375 C-356.02504805 266.76363077 -351.60420467 274.44764064 -347.06567383 282.1315918 C-345.96860711 284.05504005 -344.97276632 286.01121493 -344 288 C-354.81682354 285.53629833 -365.1904976 279.96502834 -372 271 C-380.77515767 256.98487087 -383.02878755 243.66290217 -380.41796875 227.3671875 C-375.11885514 207.67093874 -360.05437251 194.51214863 -343.015625 184.640625 C-330.61684432 177.7295624 -317.45325278 172.79001587 -304.19033813 167.82154846 C-301.40209793 166.77441411 -298.61751333 165.71773269 -295.83306885 164.66055298 C-293.79594601 163.89232685 -291.75354102 163.1396291 -289.71044922 162.38745117 C-276.74804823 157.53004774 -269.02184491 151.26308703 -261.578125 139.76391602 C-239.2001997 105.26029778 -206.04364567 96.53482618 -168 88 C-134.7672161 80.53109858 -100.93146692 70.89105372 -70.16894531 56.03222656 C-68.02158277 55.0102715 -65.85719769 54.04174883 -63.6796875 53.0859375 C-48.33391378 46.27730438 -34.0577576 37.74979915 -22 26 C-20.81930739 25.03329219 -19.63222669 24.07430879 -18.4375 23.125 C-11.41945109 17.14972723 -5.98032953 9.33268934 -1.09375 1.58203125 C-0.7328125 1.05996094 -0.371875 0.53789062 0 0 Z " fill="#034194" transform="translate(739,410)"/>
<path d="M0 0 C9.24 0 18.48 0 28 0 C28 4.24585259 25.74475515 6.8527486 23.4375 10.25 C22.97859375 10.92659668 22.5196875 11.60319336 22.046875 12.30029297 C16.17473156 20.80626545 10.67651544 25.97738726 1 30 C0.67 30 0.34 30 0 30 C0 20.1 0 10.2 0 0 Z " fill="#F3F4F5" transform="translate(454,541)"/>
<path d="M0 0 C0 4.95 0 9.9 0 15 C-11.88 15 -23.76 15 -36 15 C-36.33 13.35 -36.66 11.7 -37 10 C-28 7 -19 4 -10 1 C-8.95859863 0.60474121 -7.91719727 0.20948242 -6.84423828 -0.19775391 C-4 -1 -4 -1 0 0 Z " fill="#F1F2F5" transform="translate(454,599)"/>
<path d="M0 0 C12.21 0 24.42 0 37 0 C37 0.99 37 1.98 37 3 C24.79 3 12.58 3 0 3 C0 2.01 0 1.02 0 0 Z " fill="#F4F4F4" transform="translate(1215,1021)"/>
<path d="M0 0 C12.21 0 24.42 0 37 0 C37 0.99 37 1.98 37 3 C24.79 3 12.58 3 0 3 C0 2.01 0 1.02 0 0 Z " fill="#F4F4F4" transform="translate(1142,1021)"/>
<path d="M0 0 C12.21 0 24.42 0 37 0 C37 0.99 37 1.98 37 3 C24.79 3 12.58 3 0 3 C0 2.01 0 1.02 0 0 Z " fill="#F4F4F4" transform="translate(563,1021)"/>
<path d="M0 0 C11.88 0 23.76 0 36 0 C36 0.99 36 1.98 36 3 C24.12 3 12.24 3 0 3 C0 2.01 0 1.02 0 0 Z " fill="#F4F4F4" transform="translate(853,1021)"/>
<path d="M0 0 C3.63 0 7.26 0 11 0 C11 3 11 3 9.03125 5.04296875 C8.1959375 5.75066406 7.360625 6.45835937 6.5 7.1875 C5.6646875 7.90292969 4.829375 8.61835938 3.96875 9.35546875 C3.3190625 9.89816406 2.669375 10.44085938 2 11 C1.34 10.67 0.68 10.34 0 10 C0 6.7 0 3.4 0 0 Z " fill="#E9ECF0" transform="translate(710,431)"/>
<path d="M0 0 C2.31 0 4.62 0 7 0 C7.22142255 1.95689659 7.4267568 3.91561952 7.625 5.875 C7.74101563 6.96554687 7.85703125 8.05609375 7.9765625 9.1796875 C7.98429688 10.11039063 7.99203125 11.04109375 8 12 C7.34 12.66 6.68 13.32 6 14 C4.9923048 12.2335343 3.99408286 10.46166177 3 8.6875 C2.443125 7.70136719 1.88625 6.71523438 1.3125 5.69921875 C0 3 0 3 0 0 Z " fill="#EDEEF2" transform="translate(810,724)"/>
<path d="M0 0 C1.98 0 3.96 0 6 0 C6.33 0.66 6.66 1.32 7 2 C5.8203125 4.3828125 5.8203125 4.3828125 4.125 7.125 C3.57070313 8.03507813 3.01640625 8.94515625 2.4453125 9.8828125 C1.96835937 10.58148437 1.49140625 11.28015625 1 12 C0.67 12 0.34 12 0 12 C0 8.04 0 4.08 0 0 Z " fill="#E9ECF0" transform="translate(746,541)"/>
<path d="M0 0 C0 3 0 3 -1.28515625 4.62573242 C-2.16494141 5.4819519 -2.16494141 5.4819519 -3.0625 6.35546875 C-3.69414063 6.97744141 -4.32578125 7.59941406 -4.9765625 8.24023438 C-5.64429688 8.88283203 -6.31203125 9.52542969 -7 10.1875 C-8.00160156 11.16879883 -8.00160156 11.16879883 -9.0234375 12.16992188 C-10.67578441 13.78686135 -12.33471601 15.39640491 -14 17 C-14.66 16.34 -15.32 15.68 -16 15 C-13.71240451 12.68344197 -11.41925113 10.37246517 -9.125 8.0625 C-8.47402344 7.40314453 -7.82304688 6.74378906 -7.15234375 6.06445312 C-6.52714844 5.43603516 -5.90195312 4.80761719 -5.2578125 4.16015625 C-4.6817627 3.57886963 -4.10571289 2.99758301 -3.51220703 2.39868164 C-2 1 -2 1 0 0 Z " fill="#0F4696" transform="translate(663,310)"/>
<path d="M0 0 C3.465 1.98 3.465 1.98 7 4 C6.67 4.66 6.34 5.32 6 6 C4.35 6 2.7 6 1 6 C1 8.31 1 10.62 1 13 C0.34 12.67 -0.32 12.34 -1 12 C-0.67 8.04 -0.34 4.08 0 0 Z " fill="#EFF3F9" transform="translate(665,608)"/>
<path d="M0 0 C0 3 0 3 -1.2421875 4.60546875 C-1.78101563 5.12753906 -2.31984375 5.64960937 -2.875 6.1875 C-3.40867187 6.71730469 -3.94234375 7.24710938 -4.4921875 7.79296875 C-6 9 -6 9 -8 9 C-8.66 10.32 -9.32 11.64 -10 13 C-10.66 13 -11.32 13 -12 13 C-10.44997253 9.11602311 -7.99523379 6.97020381 -4.875 4.25 C-3.96492188 3.45078125 -3.05484375 2.6515625 -2.1171875 1.828125 C-1.06917969 0.92320312 -1.06917969 0.92320312 0 0 Z " fill="#164996" transform="translate(382,604)"/>
<path d="M0 0 C1.2065625 0.0309375 1.2065625 0.0309375 2.4375 0.0625 C2.08870368 3.31793229 1.41616739 4.08123107 -1.125 6.3125 C-1.929375 6.89 -2.73375 7.4675 -3.5625 8.0625 C-3.60491723 5.72955225 -3.60342937 3.39547433 -3.5625 1.0625 C-2.5625 0.0625 -2.5625 0.0625 0 0 Z " fill="#E9EBF2" transform="translate(676.5625,503.9375)"/>
<path d="M0 0 C1.2065625 0.0309375 1.2065625 0.0309375 2.4375 0.0625 C2.4375 1.0525 2.4375 2.0425 2.4375 3.0625 C-0.0625 5.25 -0.0625 5.25 -2.5625 7.0625 C-3.5625 6.0625 -3.5625 6.0625 -3.6875 3.5625 C-3.51717518 0.15600356 -3.41884482 0.08338646 0 0 Z " fill="#E7EBEF" transform="translate(640.5625,540.9375)"/>
<path d="M0 0 C0 3.69942045 -0.85819127 4.40155392 -3.25 7.125 C-3.85328125 7.82882813 -4.4565625 8.53265625 -5.078125 9.2578125 C-7.10469267 11.09490433 -8.32969429 11.6100881 -11 12 C-7.49102731 7.81576108 -3.91939465 3.80411834 0 0 Z " fill="#1E4E9D" transform="translate(1216,245)"/>
<path d="M0 0 C1 2 1 2 0.875 3.9375 C-0.37084607 6.87413718 -2.23033296 7.51855019 -5 9 C-6.34631825 9.98244845 -7.68441297 10.97676564 -9 12 C-7.55575365 8.76138697 -5.74227753 6.38030837 -3.375 3.75 C-2.74335937 3.04359375 -2.11171875 2.3371875 -1.4609375 1.609375 C-0.97882813 1.07828125 -0.49671875 0.5471875 0 0 Z " fill="#1C4D9E" transform="translate(1266,182)"/>
<path d="M0 0 C0.99 0.33 1.98 0.66 3 1 C-0.96 4.465 -0.96 4.465 -5 8 C-5.66 7.67 -6.32 7.34 -7 7 C-4.69 4.69 -2.38 2.38 0 0 Z " fill="#0F4696" transform="translate(1204,257)"/>
<path d="M0 0 C1.21386936 3.64160808 0.6674695 4.33165469 -0.9375 7.6875 C-1.31777344 8.49574219 -1.69804688 9.30398438 -2.08984375 10.13671875 C-2.39019531 10.75160156 -2.69054687 11.36648438 -3 12 C-3.99 12 -4.98 12 -6 12 C-4.02 8.04 -2.04 4.08 0 0 Z " fill="#2150A0" transform="translate(744,556)"/>
<path d="M0 0 C0 4.38968456 -2.12805101 5.76905739 -5 9 C-5.66 8.67 -6.32 8.34 -7 8 C-4.69 5.36 -2.38 2.72 0 0 Z " fill="#114999" transform="translate(406,658)"/>
<path d="M0 0 C0.66 0.33 1.32 0.66 2 1 C1.67 4.96 1.34 8.92 1 13 C0.01 12.01 -0.98 11.02 -2 10 C-1.67 9.67 -1.34 9.34 -1 9 C-0.76807135 7.48530552 -0.58784762 5.96245438 -0.4375 4.4375 C-0.35371094 3.61121094 -0.26992188 2.78492188 -0.18359375 1.93359375 C-0.12300781 1.29550781 -0.06242188 0.65742187 0 0 Z " fill="#1850A3" transform="translate(664,607)"/>
<path d="M0 0 C-1.07401108 2.91517292 -1.77810176 4.77810176 -4 7 C-4.33 5.35 -4.66 3.7 -5 2 C-2 0 -2 0 0 0 Z " fill="#3667AE" transform="translate(1069,449)"/>
<path d="M0 0 C2.31 0 4.62 0 7 0 C7 0.66 7 1.32 7 2 C6.01 2 5.02 2 4 2 C3.67 2.66 3.34 3.32 3 4 C2.01 3.34 1.02 2.68 0 2 C0 1.34 0 0.68 0 0 Z " fill="#3B62AD" transform="translate(996,342)"/>
</svg>
