<?xml version="1.0" standalone="no"?>
<!DOCTYPE svg PUBLIC "-//W3C//DTD SVG 20010904//EN"
 "http://www.w3.org/TR/2001/REC-SVG-20010904/DTD/svg10.dtd">
<svg version="1.0" xmlns="http://www.w3.org/2000/svg"
 width="1536.000000pt" height="1024.000000pt" viewBox="0 0 1536.000000 1024.000000"
 preserveAspectRatio="xMidYMid meet">

<g transform="translate(0.000000,1024.000000) scale(0.100000,-0.100000)"
fill="#000000" stroke="none">
<path d="M12485 7717 c-72 -84 -211 -202 -321 -273 -303 -195 -684 -302 -1274
-356 -156 -14 -1009 -18 -1155 -6 -44 4 -301 13 -571 19 -848 22 -1271 -16
-1673 -148 -496 -162 -834 -509 -926 -950 -31 -145 -16 -379 30 -490 18 -44
94 -163 104 -163 3 0 5 78 3 172 -3 191 7 296 43 436 62 238 194 435 397 587
246 187 580 295 1043 340 199 20 774 21 1155 4 369 -17 1189 -18 1355 -1 311
31 486 59 699 112 261 64 562 183 707 280 l64 43 -110 -112 c-275 -280 -636
-480 -1156 -640 -247 -76 -639 -151 -791 -151 -26 0 -48 -3 -48 -7 0 -11 167
-104 265 -148 194 -89 378 -130 635 -141 l150 -7 -70 -39 c-378 -209 -1123
-365 -1640 -344 -91 3 -181 9 -200 12 -34 5 -33 3 55 -81 49 -48 124 -113 166
-145 194 -146 482 -269 672 -287 64 -6 68 -7 51 -21 -30 -23 -138 -70 -232
-102 -240 -80 -471 -99 -912 -74 -414 22 -575 12 -756 -50 -148 -50 -297 -145
-386 -246 -49 -56 -168 -233 -168 -251 0 -4 48 22 108 58 235 145 319 188 437
226 179 57 175 57 980 46 308 -4 371 1 575 46 353 79 669 271 842 512 31 43
60 87 64 96 5 15 3 16 -17 8 -86 -34 -311 -65 -409 -56 -76 7 -201 30 -280 51
-80 22 -200 67 -200 76 0 5 35 8 79 8 162 0 548 63 759 125 492 143 800 320
1042 599 74 86 169 214 170 229 0 4 -12 1 -27 -7 -45 -23 -273 -93 -375 -115
-147 -32 -330 -51 -478 -50 l-135 0 135 35 c682 178 1201 581 1487 1157 40 80
106 248 100 252 -1 1 -29 -29 -62 -68z"/>
<path d="M7652 5772 c-47 -72 -185 -202 -288 -269 -264 -173 -726 -336 -1289
-453 -229 -48 -302 -70 -410 -119 -154 -72 -255 -157 -367 -311 -102 -140
-117 -149 -396 -251 -225 -81 -391 -163 -483 -238 -87 -70 -121 -111 -157
-189 -24 -51 -27 -68 -27 -172 0 -104 3 -121 27 -172 35 -75 104 -148 176
-186 104 -54 107 -53 60 25 -162 266 -157 437 15 568 105 80 234 132 549 220
103 29 203 62 221 74 48 29 115 104 171 188 141 214 244 272 603 342 195 38
338 79 628 178 303 104 517 208 694 338 34 25 61 42 61 39 0 -3 -34 -54 -75
-112 -119 -170 -231 -287 -613 -644 -91 -84 -91 -84 19 -57 77 19 248 39 342
39 l98 0 -182 -196 -182 -195 35 -37 c19 -20 54 -64 77 -96 l41 -59 0 61 0 62
85 -52 c266 -166 683 -580 993 -985 39 -53 72 -100 72 -104 0 -5 -27 4 -60 21
-126 63 -636 287 -880 385 -509 206 -867 321 -1235 399 -349 74 -726 84 -970
26 -110 -26 -232 -67 -282 -96 -84 -50 -181 -165 -198 -236 -8 -31 5 -37 26
-12 37 44 229 114 434 156 137 28 167 31 345 32 220 1 357 -15 613 -70 521
-112 1219 -368 2162 -794 177 -80 479 -208 483 -204 8 6 -117 235 -200 366
-207 324 -422 585 -729 882 -146 143 -388 336 -476 381 -21 10 -39 20 -41 21
-2 1 33 38 78 81 91 86 200 210 304 347 l68 89 -183 -7 c-101 -4 -206 -9 -234
-12 l-50 -5 57 53 c224 210 415 507 474 738 13 53 36 260 29 268 -1 1 -16 -19
-33 -46z"/>
</g>
</svg>
